<svg width="384" height="368" viewBox="0 0 384 368" fill="none" xmlns="http://www.w3.org/2000/svg">
<path d="M0 334H135.197C144.034 334 151.197 326.837 151.197 318V164C151.197 155.163 158.361 148 167.197 148H383" stroke="white" stroke-width="15"/>
<path d="M152 285H271C279.837 285 287 277.837 287 269V212.5C287 203.663 294.163 196.5 303 196.5H383.5" stroke="white" stroke-width="15"/>
<path d="M57 332L57 0" stroke="white" stroke-width="15"/>
<path d="M204 150L204 0" stroke="white" stroke-width="15"/>
<path d="M56 91L204 91" stroke="white" stroke-width="15"/>
<path d="M229 281L229 368" stroke="white" stroke-width="15"/>
<path d="M351 195L351 368" stroke="white" stroke-width="15"/>
<path d="M239 221L152 221" stroke="white" stroke-width="15"/>
<path d="M57 190L0 190" stroke="white" stroke-width="15"/>
<path d="M296 151L296 0" stroke="white" stroke-width="15"/>
</svg>
