<svg width="51" height="50" viewBox="0 0 51 50" fill="none" xmlns="http://www.w3.org/2000/svg">
<path d="M49.9068 38.0225C48.9012 37.0169 48.9012 35.4018 49.9068 34.4267L50.303 34.0305C50.5772 33.7563 50.5772 33.3297 50.303 33.0554L38.6624 21.4148L43.6295 16.4478C43.9037 16.1735 43.9037 15.7469 43.6295 15.4726L43.2333 15.0765C42.2277 14.0709 42.2277 12.4558 43.2333 11.4807L43.6295 11.0846C43.9037 10.8103 43.9037 10.3837 43.6295 10.1094L40.1251 6.60508C39.8508 6.33083 39.4242 6.33083 39.15 6.60508L37.4435 8.31156C37.1692 8.58581 37.1692 9.01243 37.4435 9.28669L39.668 11.5112C40.6127 12.4863 40.6127 14.0404 39.668 15.046L30.5871 24.1269L27.9055 21.4758L36.4379 12.9434C36.7122 12.6692 36.7122 12.2425 36.4379 11.9683L36.0417 11.5721C35.0361 10.5665 35.0361 8.95148 36.0417 7.97636L36.4379 7.58021C36.7122 7.30596 36.7122 6.87934 36.4379 6.60508L30.0386 0.205813C29.7644 -0.0684416 29.3378 -0.0684416 29.0635 0.205813L27.357 1.91229C27.0828 2.18654 27.0828 2.61316 27.357 2.88742L32.5069 8.03731C33.4516 9.01243 33.4516 10.5665 32.5069 11.5721L25.2544 18.8246L18.0019 11.5721C17.0573 10.597 17.0573 9.0429 18.0019 8.03731L23.1518 2.88742C23.426 2.61316 23.426 2.18654 23.1518 1.91229L21.4453 0.205813C21.1711 -0.0684416 20.7445 -0.0684416 20.4702 0.205813L14.0709 6.60508C13.7967 6.87934 13.7967 7.30596 14.0709 7.58021L14.4671 7.97636C15.4727 8.98196 15.4727 10.597 14.4671 11.5721L14.0709 11.9683C13.7967 12.2425 13.7967 12.6692 14.0709 12.9434L39.2109 38.0529C40.1556 39.0281 40.1556 40.5822 39.2109 41.5878L34.061 46.7377C33.7868 47.0119 33.7868 47.4385 34.061 47.7128L35.7675 49.4193C36.0418 49.6935 36.4684 49.6935 36.7426 49.4193L43.1419 43.02C43.4162 42.7457 43.4162 42.3191 43.1419 42.0449L42.7457 41.6487C41.7401 40.6431 41.7401 39.0281 42.7457 38.0529L43.1419 37.6568C43.4162 37.3825 43.4162 36.9559 43.1419 36.6817L33.2687 26.8085L35.9808 24.0964L46.3415 34.4572C47.2862 35.4323 47.2862 36.9864 46.3415 37.992L44.117 40.2165C43.8428 40.4907 43.8428 40.9174 44.117 41.1916L45.8235 42.8981C46.0977 43.1724 46.5244 43.1724 46.7986 42.8981L50.303 39.3937C50.5772 39.1195 50.5772 38.6929 50.303 38.4186L49.9068 38.0225Z" fill="white"/>
<path d="M10.8407 15.0461C9.89602 14.0709 9.89602 12.5168 10.8407 11.5112L13.0652 9.28671C13.3394 9.01246 13.3394 8.58583 13.0652 8.31158L11.3587 6.6051C11.0845 6.33085 10.6578 6.33085 10.3836 6.6051L6.87922 10.1095C6.60497 10.3837 6.60497 10.8103 6.87922 11.0846L7.27536 11.4807C8.28096 12.4863 8.28096 14.1014 7.27536 15.0765L6.87922 15.4727C6.60497 15.7469 6.60497 16.1735 6.87922 16.4478L11.8463 21.4149L0.205691 33.0554C-0.0685636 33.3297 -0.0685636 33.7563 0.205691 34.0306L0.601837 34.4267C1.60744 35.4323 1.60744 37.0474 0.601837 38.0225L0.205691 38.4186C-0.0685636 38.6929 -0.0685636 39.1195 0.205691 39.3938L3.71005 42.8981C3.98431 43.1724 4.41093 43.1724 4.68518 42.8981L6.39165 41.1917C6.66591 40.9174 6.66591 40.4908 6.39165 40.2165L4.16715 37.992C3.22249 37.0169 3.22249 35.4628 4.16715 34.4572L14.5279 24.0965L17.2399 26.8085L7.36678 36.6817C7.09253 36.9559 7.09253 37.3826 7.36678 37.6568L7.76293 38.053C8.76853 39.0586 8.76853 40.6736 7.76293 41.6487L7.36678 42.0449C7.09253 42.3191 7.09253 42.7458 7.36678 43.02L13.7661 49.4193C14.0403 49.6935 14.4669 49.6935 14.7412 49.4193L16.4477 47.7128C16.7219 47.4386 16.7219 47.0119 16.4477 46.7377L11.2978 41.5878C10.3531 40.6127 10.3531 39.0586 11.2978 38.053L22.5422 26.8085L10.8102 15.0461H10.8407Z" fill="white"/>
</svg>
