<svg width="168" height="43" viewBox="0 0 168 43" fill="none" xmlns="http://www.w3.org/2000/svg">
<path d="M43.0919 32.8781C42.2245 32.0107 42.2245 30.6116 43.0919 29.7722L43.4277 29.4364C43.6515 29.2125 43.6515 28.8208 43.4277 28.597L33.3544 18.5237L37.6635 14.2145C37.8874 13.9907 37.8874 13.599 37.6635 13.3751L37.3277 13.0393C36.4603 12.1719 36.4603 10.7728 37.3277 9.93339L37.6635 9.59761C37.8874 9.37376 37.8874 8.98202 37.6635 8.75817L34.6415 5.73618C34.4177 5.51233 34.0259 5.51233 33.8021 5.73618L32.347 7.19122C32.1232 7.41507 32.1232 7.80681 32.347 8.03066L34.2778 9.96137C35.0892 10.8008 35.0892 12.1439 34.2778 13.0113L26.443 20.8461L24.1485 18.5517L31.5356 11.1646C31.7594 10.9407 31.7594 10.549 31.5356 10.3251L31.1998 9.98935C30.3324 9.12193 30.3324 7.72286 31.1998 6.88342L31.5356 6.54764C31.7594 6.32379 31.7594 5.93205 31.5356 5.7082L25.9953 0.167888C25.7714 -0.0559627 25.3797 -0.0559627 25.1558 0.167888L23.7008 1.6509C23.4769 1.87475 23.4769 2.26649 23.7008 2.49034L28.1498 6.93938C28.9613 7.77883 28.9613 9.12193 28.1498 9.98935L21.882 16.2572L15.6142 9.98935C14.8027 9.14991 14.8027 7.80681 15.6142 6.93938L20.0632 2.49034C20.2871 2.26649 20.2871 1.87475 20.0632 1.6509L18.6082 0.167888C18.3843 -0.0559627 17.9926 -0.0559627 17.7687 0.167888L12.2284 5.7082C12.0046 5.93205 12.0046 6.32379 12.2284 6.54764L12.5642 6.88342C13.4316 7.75084 13.4316 9.14991 12.5642 9.98935L12.2284 10.3251C12.0046 10.549 12.0046 10.9407 12.2284 11.1646L33.942 32.8781C34.7534 33.7176 34.7534 35.0607 33.942 35.9281L29.4929 40.3771C29.2691 40.601 29.2691 40.9927 29.4929 41.2166L30.948 42.6716C31.1718 42.8955 31.5636 42.8955 31.7874 42.6716L37.3277 37.1313C37.5516 36.9074 37.5516 36.5157 37.3277 36.2918L36.992 35.9561C36.1245 35.0886 36.1245 33.6896 36.992 32.8501L37.3277 32.5143C37.5516 32.2905 37.5516 31.8988 37.3277 31.6749L28.7934 23.1406L31.1438 20.7902L40.0979 29.7442C40.9093 30.5836 40.9093 31.9267 40.0979 32.7942L38.1672 34.7249C37.9433 34.9487 37.9433 35.3405 38.1672 35.5643L39.6222 37.0194C39.846 37.2432 40.2378 37.2432 40.4616 37.0194L43.4836 33.9974C43.7075 33.7735 43.7075 33.3818 43.4836 33.1579L43.1479 32.8222L43.0919 32.8781Z" fill="#0F0F11"/>
<path d="M9.3178 13.0114C8.50634 12.172 8.50634 10.8289 9.3178 9.96144L11.2485 8.03072C11.4724 7.80687 11.4724 7.41513 11.2485 7.19128L9.79348 5.73625C9.56963 5.5124 9.17789 5.5124 8.95404 5.73625L5.93205 8.75824C5.7082 8.98209 5.7082 9.37383 5.93205 9.59768L6.26783 9.93345C7.13525 10.8009 7.13525 12.1999 6.26783 13.0394L5.93205 13.3752C5.7082 13.599 5.7082 13.9908 5.93205 14.2146L10.2412 18.5237L0.167888 28.597C-0.0559627 28.8209 -0.0559627 29.2126 0.167888 29.4365L0.503668 29.7722C1.37109 30.6397 1.37109 32.0387 0.503668 32.8782L0.167888 33.214C-0.0559627 33.4378 -0.0559627 33.8295 0.167888 34.0534L3.18988 37.0754C3.41373 37.2992 3.80547 37.2992 4.02932 37.0754L5.48435 35.6204C5.7082 35.3965 5.7082 35.0048 5.48435 34.7809L3.55364 32.8502C2.74218 32.0108 2.74218 30.6677 3.55364 29.8002L12.5077 20.8462L14.8581 23.1966L6.32379 31.7309C6.09994 31.9548 6.09994 32.3465 6.32379 32.5704L6.65957 32.9062C7.52699 33.7736 7.52699 35.1726 6.65957 36.0121L6.32379 36.3479C6.09994 36.5717 6.09994 36.9635 6.32379 37.1873L11.8641 42.7276C12.088 42.9515 12.4797 42.9515 12.7035 42.7276L14.1586 41.2726C14.3824 41.0487 14.3824 40.657 14.1586 40.4332L9.70954 35.9841C8.89808 35.1447 8.89808 33.8016 9.70954 32.9341L19.4471 23.1966L9.28982 13.0394L9.3178 13.0114Z" fill="#0F0F11"/>
<path d="M55.2627 15.7817C55.2627 17.8803 57.6691 18.7477 60.5792 19.6991C63.741 20.7624 67.1548 22.1334 67.1548 25.855C67.1548 29.5765 64.0768 31.7591 59.9636 31.7591C55.8503 31.7591 55.7104 30.8916 54.6471 30.8916C53.5838 30.8916 53.7517 31.1714 53.304 31.1714C52.6324 31.1714 52.6045 30.6398 52.2407 28.4852C52.0169 27.0862 51.877 26.1908 51.877 25.883C51.877 25.5752 52.1008 25.2114 52.4646 25.2114C53.0522 25.2114 53.332 26.1348 54.2554 27.1981C55.3466 28.4852 57.2774 29.8004 60.0195 29.8004C62.7617 29.8004 63.9649 28.5692 63.9649 26.6664C63.9649 24.7637 61.4746 23.4486 58.8723 22.5532C55.7943 21.5179 52.3246 20.3147 52.3246 16.6491C52.3246 12.9835 54.8989 11.0808 58.6764 11.0808C62.4539 11.0808 62.286 11.9762 63.2654 11.9762C64.2447 11.9762 64.1048 11.7244 64.5805 11.7244C65.4199 11.7244 65.308 12.5918 65.7557 14.3267C66.1474 16.0335 66.3153 16.4253 66.3153 16.7051C66.3153 16.9849 66.0915 17.4046 65.6998 17.4046C65.1401 17.4046 64.8603 16.761 64.2727 16.0335C62.37 13.5152 60.3553 12.8436 58.7883 12.8436C57.2214 12.8436 55.2907 13.9349 55.2907 15.7817H55.2627Z" fill="#0F0F11"/>
<path d="M77.004 28.0376C77.004 29.0169 77.3118 29.5206 78.3751 29.8843C78.9347 30.1082 79.4943 30.2761 79.4943 30.7518C79.4943 31.2274 79.1306 31.3953 78.4031 31.3953C77.6755 31.3953 76.2485 31.3114 75.5489 31.3114C74.8494 31.3114 73.8141 31.3953 73.3384 31.3953C72.6669 31.3953 72.415 31.1435 72.415 30.8077C72.415 30.0522 73.7581 30.1642 73.926 28.933C74.01 28.3174 74.038 23.3927 74.038 21.2661C74.038 19.1395 74.038 15.0542 73.982 14.5785C73.8421 12.8997 72.471 13.0675 72.471 12.2001C72.471 11.3327 72.6389 11.5565 73.3384 11.5565C74.038 11.5565 74.8214 11.6405 76.0806 11.6405C77.3398 11.6405 78.9067 11.5286 80.9214 11.5286C85.6502 11.5286 88.1686 13.9629 88.1686 17.3767C88.1686 20.7904 85.6782 23.6445 80.6416 23.6445C75.6049 23.6445 78.487 23.5046 77.8434 23.5046C77.1999 23.5046 76.976 23.7844 76.976 24.428V28.0656L77.004 28.0376ZM80.026 13.3194C77.4237 13.3194 77.004 13.4593 77.004 14.8304V20.5106C77.004 21.5739 77.9274 21.8257 80.1379 21.8257C82.3484 21.8257 84.9507 20.1468 84.9507 17.5446C84.9507 14.9423 82.936 13.3474 79.998 13.3474L80.026 13.3194Z" fill="#0F0F11"/>
<path d="M99.4176 12.172C99.4176 13.0674 98.0465 12.8155 97.9346 14.5504C97.8786 14.9981 97.8507 18.4678 97.8507 21.2379C97.8507 24.0081 97.9066 28.1773 97.9906 28.8768C98.1864 30.136 99.4736 29.9681 99.4736 30.7516C99.4736 31.5351 99.2218 31.3392 98.5502 31.3392C97.8787 31.3392 97.0952 31.2552 96.3956 31.2552C95.6961 31.2552 94.7168 31.3392 94.1851 31.3392C93.6535 31.3392 93.2617 31.0594 93.2617 30.7516C93.2617 29.9681 94.6328 30.108 94.7727 28.8768C94.8567 28.2612 94.8847 23.3365 94.8847 21.2379C94.8847 19.1393 94.8846 15.0261 94.8567 14.5504C94.7168 12.8435 93.3457 13.0394 93.3457 12.172C93.3457 11.3045 93.5136 11.5284 94.2131 11.5284C94.9126 11.5284 95.6961 11.6123 96.3956 11.6123C97.0952 11.6123 98.0465 11.5284 98.5502 11.5284C99.0539 11.5284 99.4176 11.8362 99.4176 12.172Z" fill="#0F0F11"/>
<path d="M112.82 11.5286C118.333 11.5286 123.873 14.2428 123.873 21.35C123.873 28.4573 120.04 31.3953 114.135 31.3953C108.231 31.3953 110.526 31.2834 108.539 31.2834C106.553 31.2834 106.86 31.3674 106.329 31.3674C105.797 31.3674 105.405 31.1155 105.405 30.7798C105.405 29.9963 106.776 30.1362 106.916 28.905C107 28.2894 107.028 23.3647 107.028 21.2661C107.028 19.1675 107.028 15.0542 107 14.5785C106.86 12.8717 105.489 13.0675 105.489 12.2001C105.489 11.3327 105.657 11.5565 106.357 11.5565C107.056 11.5565 107.84 11.6405 108.539 11.6405C110.134 11.6405 111.253 11.5565 112.82 11.5565V11.5286ZM109.994 28.0376C109.994 29.4087 110.526 29.6605 113.632 29.6605C118.612 29.6605 120.599 25.939 120.599 21.7977C120.599 17.6565 118.445 13.2634 112.513 13.2634C106.58 13.2634 109.994 13.7111 109.994 14.8024V28.0096V28.0376Z" fill="#0F0F11"/>
<path d="M140.102 22.889C140.102 23.6165 139.99 23.9523 139.57 23.9523C139.151 23.9523 138.955 23.5606 138.815 23.2248C138.283 22.0496 138.087 21.7418 134.814 21.7418C131.54 21.7418 133.834 22.0496 133.834 22.7491V28.0935C133.834 29.4646 134.254 29.5766 137.136 29.5766C140.018 29.5766 141.893 29.0169 142.928 26.3307C143.152 25.7711 143.432 25.3514 143.768 25.3514C144.103 25.3514 144.299 25.6032 144.299 26.3867C144.299 27.1702 143.851 29.8284 143.824 30.5C143.796 31.1155 143.404 31.4233 142.648 31.4233C141.893 31.4233 140.522 31.3394 137.332 31.3394C134.142 31.3394 131.204 31.4233 130.197 31.4233C129.189 31.4233 129.273 31.1715 129.273 30.8357C129.273 30.0802 130.616 30.1922 130.784 28.961C130.868 28.3454 130.896 23.4207 130.896 21.2941C130.896 19.1675 130.896 15.0822 130.84 14.6065C130.7 12.9276 129.329 13.0955 129.329 12.2281C129.329 11.3607 129.497 11.5845 130.197 11.5845C130.896 11.5845 132.127 11.6685 136.604 11.6685C141.081 11.6685 141.529 11.5845 142.005 11.5845C142.48 11.5845 142.9 11.7524 143.068 12.6478C143.18 13.2075 143.32 14.5785 143.488 15.5299C143.6 16.0336 143.656 16.5372 143.656 16.7051C143.656 17.1249 143.404 17.3207 143.068 17.3207C142.592 17.3207 142.368 16.6492 142.145 16.1735C141.165 13.7951 140.774 13.3474 136.996 13.3474C133.219 13.3474 133.806 13.5152 133.806 14.8024V18.9996C133.806 19.7551 133.974 20.0069 134.73 20.0069C138.227 20.0069 138.423 19.5592 138.899 18.412C139.039 18.1602 139.235 17.9363 139.458 17.9363C139.906 17.9363 140.074 18.2721 140.074 19.2514V22.945L140.102 22.889Z" fill="#0F0F11"/>
<path d="M154.484 28.1774C154.484 29.0728 154.82 29.4925 155.38 29.8283C155.856 30.1361 156.387 30.332 156.387 30.7797C156.387 31.2274 156.107 31.3673 155.464 31.3673C154.82 31.3673 153.729 31.2833 153.029 31.2833C152.33 31.2833 151.295 31.3673 150.819 31.3673C150.147 31.3673 149.896 31.1154 149.896 30.7797C149.896 30.0242 151.239 30.1361 151.407 28.9049C151.49 28.2893 151.518 23.3646 151.518 21.238C151.518 19.1114 151.518 15.0261 151.462 14.5505C151.323 12.8716 149.951 13.0395 149.951 12.172C149.951 11.3046 150.119 11.5285 150.819 11.5285C151.518 11.5285 152.302 11.6124 153.561 11.6124C154.82 11.6124 156.135 11.5005 158.15 11.5005C162.879 11.5005 165.313 13.4312 165.313 16.8729C165.313 20.3146 164.446 20.7064 160.724 21.9096C160.612 21.9655 160.528 22.0215 160.528 22.1054C160.528 22.1894 160.612 22.2733 160.752 22.3573C162.879 23.6724 163.998 25.4912 165.257 27.5618C165.845 28.5132 166.209 29.2127 166.992 29.7443C167.608 30.1641 167.999 30.276 167.999 30.7517C167.999 31.2274 167.636 31.3952 167.244 31.3952C166.684 31.3952 165.593 31.3113 164.949 31.3113C163.914 31.3113 163.159 31.3952 162.795 31.3952C162.291 31.3952 161.955 31.1154 161.955 30.8076C161.955 30.3599 162.319 30.304 162.319 29.6044C162.319 27.6737 159.969 24.3999 158.402 23.4485C157.506 22.9449 155.939 22.9169 155.772 22.9169C154.736 22.9169 154.428 23.2806 154.428 23.8962V28.2054L154.484 28.1774ZM157.255 13.3193C154.652 13.3193 154.484 13.4592 154.484 14.8303V19.9229C154.484 20.6784 154.932 20.9862 157.143 20.9862C159.353 20.9862 162.067 19.4752 162.067 17.0968C162.067 14.7183 160.109 13.2913 157.255 13.2913V13.3193Z" fill="#0F0F11"/>
<path d="M59.4045 36.9915C59.2366 36.9915 59.0407 36.9915 58.8728 37.0475C58.677 37.0755 58.5371 37.1314 58.3692 37.2154C58.2293 37.2993 58.0894 37.4112 58.0054 37.5511C57.9215 37.691 57.8655 37.8589 57.8655 38.0828C57.8655 38.3066 57.8935 38.4186 57.9495 38.5305C58.0054 38.6424 58.0894 38.7543 58.2013 38.8383C58.3132 38.9222 58.4251 39.0062 58.565 39.0621C58.705 39.1181 58.8449 39.1741 58.9848 39.202C59.2086 39.258 59.4325 39.314 59.6563 39.3699C59.8802 39.4259 60.104 39.4819 60.3279 39.5378C60.4958 39.5938 60.6637 39.6498 60.8315 39.7337C60.9994 39.8176 61.1114 39.9016 61.2513 40.0135C61.3632 40.1254 61.4471 40.2653 61.5311 40.4052C61.587 40.5452 61.643 40.741 61.643 40.9369C61.643 41.2727 61.587 41.5245 61.4751 41.7763C61.3632 42.0002 61.1953 42.1961 60.9994 42.336C60.8036 42.4759 60.5797 42.5878 60.3279 42.6438C60.076 42.6997 59.7962 42.7277 59.4884 42.7277C59.1806 42.7277 58.9568 42.7277 58.705 42.6438C58.4531 42.5598 58.2013 42.5039 58.0054 42.3919C57.8096 42.28 57.5857 42.1121 57.4458 41.9162C57.2779 41.7204 57.166 41.4965 57.082 41.1887H57.6976C57.7816 41.3846 57.8655 41.5525 58.0054 41.6644C58.1453 41.7763 58.2852 41.8883 58.4531 41.9722C58.621 42.0562 58.8169 42.1121 58.9848 42.1401C59.1806 42.1681 59.3765 42.1961 59.5444 42.1961C59.7123 42.1961 59.9082 42.1961 60.076 42.1401C60.2439 42.0841 60.4118 42.0282 60.5517 41.9442C60.6916 41.8603 60.8036 41.7484 60.9155 41.5805C60.9994 41.4406 61.0554 41.2727 61.0554 41.0488C61.0554 40.825 61.0274 40.741 60.9714 40.6291C60.9155 40.5172 60.8315 40.4052 60.7476 40.3213C60.6636 40.2374 60.5237 40.1534 60.4118 40.0975C60.2719 40.0415 60.132 39.9855 59.9921 39.9575C59.7683 39.9016 59.5444 39.8456 59.3205 39.7896C59.0967 39.7337 58.8728 39.6777 58.649 39.6218C58.2573 39.5098 57.9495 39.3419 57.6976 39.0901C57.4458 38.8383 57.3339 38.5025 57.3339 38.0828C57.3339 37.6631 57.3898 37.4952 57.5018 37.2993C57.6137 37.0755 57.7816 36.9076 57.9774 36.7957C58.1733 36.6557 58.3972 36.5718 58.649 36.5158C58.9008 36.4599 59.1806 36.4319 59.4325 36.4319C59.6843 36.4319 59.9082 36.4319 60.16 36.5158C60.3838 36.5718 60.6077 36.6557 60.7756 36.7677C60.9714 36.8796 61.1114 37.0475 61.2513 37.2154C61.3912 37.4112 61.4471 37.6351 61.5031 37.9149H60.9435C60.9155 37.719 60.8315 37.5791 60.7476 37.4392C60.6636 37.3273 60.5237 37.2154 60.4118 37.1314C60.2719 37.0475 60.132 36.9915 59.9641 36.9635C59.7962 36.9356 59.6283 36.9076 59.4604 36.9076L59.4045 36.9915Z" fill="#413934"/>
<path d="M66.0917 38.0549C66.4555 38.0549 66.7633 38.1109 67.0431 38.2228C67.3229 38.3347 67.5468 38.5026 67.7146 38.6985C67.8825 38.8944 68.0224 39.1462 68.1344 39.426C68.2183 39.7058 68.2743 40.0136 68.2743 40.3774C68.2743 40.7411 68.2183 41.0209 68.1344 41.3287C68.0504 41.6086 67.9105 41.8604 67.7146 42.0563C67.5188 42.2521 67.2949 42.42 67.0431 42.532C66.7633 42.6439 66.4555 42.6998 66.0917 42.6998C65.728 42.6998 65.4202 42.6439 65.1404 42.532C64.8605 42.42 64.6367 42.2521 64.4688 42.0563C64.2729 41.8604 64.161 41.6086 64.0491 41.3287C63.9651 41.0489 63.9092 40.7411 63.9092 40.3774C63.9092 40.0136 63.9651 39.7338 64.0491 39.426C64.133 39.1462 64.2729 38.8944 64.4688 38.6985C64.6647 38.5026 64.8885 38.3347 65.1404 38.2228C65.3922 38.1109 65.728 38.0549 66.0917 38.0549ZM66.0917 42.2521C66.3715 42.2521 66.6234 42.1962 66.8192 42.1122C67.0151 42.0283 67.183 41.8884 67.3229 41.7205C67.4628 41.5526 67.5468 41.3567 67.6027 41.1329C67.6587 40.909 67.6867 40.6572 67.6867 40.4054C67.6867 40.1535 67.6587 39.9017 67.6027 39.6778C67.5468 39.454 67.4348 39.2581 67.3229 39.0902C67.183 38.9223 67.0151 38.7824 66.8192 38.6985C66.6234 38.6146 66.3715 38.5586 66.0917 38.5586C65.8119 38.5586 65.5881 38.6146 65.3642 38.6985C65.1683 38.8104 65.0005 38.9223 64.8605 39.0902C64.7206 39.2581 64.6367 39.454 64.5807 39.6778C64.5248 39.9017 64.4968 40.1535 64.4968 40.4054C64.4968 40.6572 64.5248 40.909 64.5807 41.1329C64.6367 41.3567 64.7486 41.5526 64.8605 41.7205C64.9725 41.8884 65.1683 42.0283 65.3642 42.1122C65.5601 42.1962 65.8119 42.2521 66.0917 42.2521Z" fill="#413934"/>
<path d="M70.6533 42.6716V36.5437H71.2129V42.6716H70.6533Z" fill="#413934"/>
<path d="M75.6332 42.252C75.885 42.252 76.0809 42.224 76.2488 42.1401C76.4167 42.0561 76.5566 41.9442 76.6685 41.8043C76.7804 41.6644 76.8364 41.4965 76.8924 41.3006C76.9483 41.1048 76.9483 40.9089 76.9483 40.6571V38.0828H77.508V40.6571C77.508 41.3006 77.3681 41.8043 77.0603 42.168C76.7525 42.5318 76.2768 42.6997 75.6052 42.6997C74.9337 42.6997 74.486 42.5318 74.1782 42.168C73.8704 41.8043 73.7305 41.3006 73.7305 40.6571V38.0828H74.2901V40.6571C74.2901 40.8809 74.2901 41.0768 74.3461 41.2726C74.402 41.4685 74.458 41.6364 74.5699 41.7763C74.6818 41.9162 74.8217 42.0281 74.9896 42.1121C75.1575 42.196 75.3534 42.224 75.6052 42.224L75.6332 42.252Z" fill="#413934"/>
<path d="M81.0898 38.1109H82.377V38.5866H81.0898V41.1608C81.0898 41.3287 81.0898 41.4686 81.1458 41.6645C81.2018 41.8604 81.2577 41.9723 81.3976 42.0563C81.4816 42.1122 81.5655 42.1402 81.6774 42.1682C81.7894 42.1961 81.8733 42.1962 81.9852 42.1962H82.321V42.6998H81.9293C81.7334 42.6998 81.5375 42.6998 81.3417 42.6439C81.1458 42.5879 80.9779 42.5039 80.838 42.364C80.7261 42.2521 80.6421 42.0842 80.5862 41.8884C80.5302 41.6925 80.5022 41.4686 80.5022 41.2168V38.6145H79.7188V38.1389H80.5022V36.8237H81.0619V38.1389L81.0898 38.1109Z" fill="#413934"/>
<path d="M84.9519 36.46C85.0919 36.46 85.1758 36.4879 85.2597 36.5719C85.3437 36.6558 85.3717 36.7398 85.3717 36.8797C85.3717 37.0196 85.3437 37.1035 85.2597 37.1875C85.1758 37.2714 85.0639 37.2994 84.9519 37.2994C84.84 37.2994 84.7281 37.2714 84.6442 37.1875C84.5602 37.1035 84.5322 37.0196 84.5322 36.8797C84.5322 36.7398 84.5602 36.6558 84.6442 36.5719C84.7281 36.4879 84.812 36.46 84.9519 36.46ZM84.6442 38.1109H85.2038V42.6718H84.6442V38.1109Z" fill="#413934"/>
<path d="M89.8486 38.0549C90.2123 38.0549 90.5201 38.1109 90.7999 38.2228C91.0797 38.3347 91.3036 38.5026 91.4715 38.6985C91.6394 38.8944 91.7793 39.1462 91.8912 39.426C91.9752 39.7058 92.0311 40.0136 92.0311 40.3774C92.0311 40.7411 91.9752 41.0209 91.8912 41.3287C91.8073 41.6086 91.6674 41.8604 91.4715 42.0563C91.2756 42.2521 91.0518 42.42 90.7999 42.532C90.5201 42.6439 90.2123 42.6998 89.8486 42.6998C89.4848 42.6998 89.177 42.6439 88.8972 42.532C88.6174 42.42 88.3935 42.2521 88.2256 42.0563C88.0298 41.8604 87.9178 41.6086 87.8059 41.3287C87.722 41.0489 87.666 40.7411 87.666 40.3774C87.666 40.0136 87.722 39.7338 87.8059 39.426C87.8899 39.1462 88.0298 38.8944 88.2256 38.6985C88.4215 38.5026 88.6454 38.3347 88.8972 38.2228C89.149 38.1109 89.4848 38.0549 89.8486 38.0549ZM89.8486 42.2521C90.1284 42.2521 90.3802 42.1962 90.5761 42.1122C90.772 42.0283 90.9398 41.8884 91.0797 41.7205C91.2197 41.5526 91.3036 41.3567 91.3596 41.1329C91.4155 40.909 91.4435 40.6572 91.4435 40.4054C91.4435 40.1535 91.4155 39.9017 91.3596 39.6778C91.3036 39.454 91.1917 39.2581 91.0797 39.0902C90.9398 38.9223 90.772 38.7824 90.5761 38.6985C90.3802 38.6146 90.1284 38.5586 89.8486 38.5586C89.5688 38.5586 89.3449 38.6146 89.1211 38.6985C88.9252 38.8104 88.7573 38.9223 88.6174 39.0902C88.4775 39.2581 88.3935 39.454 88.3376 39.6778C88.2816 39.9017 88.2536 40.1535 88.2536 40.4054C88.2536 40.6572 88.2816 40.909 88.3376 41.1329C88.3935 41.3567 88.5055 41.5526 88.6174 41.7205C88.7293 41.8884 88.9252 42.0283 89.1211 42.1122C89.3169 42.1962 89.5688 42.2521 89.8486 42.2521Z" fill="#413934"/>
<path d="M94.3809 42.6719V38.1109H94.9405V38.8944C95.0244 38.7545 95.1364 38.6425 95.2483 38.5306C95.3602 38.4187 95.5001 38.3347 95.64 38.2788C95.7799 38.1948 95.9478 38.1389 96.1157 38.1109C96.2836 38.0829 96.4515 38.0549 96.6194 38.0549C96.7873 38.0549 97.0951 38.0829 97.263 38.1668C97.4588 38.2228 97.5987 38.3347 97.7386 38.4467C97.9625 38.6425 98.1024 38.8664 98.1863 39.1742C98.2703 39.482 98.3262 39.7898 98.3262 40.1535V42.6719H97.7666V40.3494C97.7666 40.0696 97.7666 39.8177 97.7106 39.5659C97.6547 39.3141 97.5707 39.0902 97.4308 38.9223C97.3189 38.8104 97.207 38.7265 97.0671 38.6425C96.9272 38.5866 96.7313 38.5306 96.5075 38.5306C96.2836 38.5306 96.0598 38.5866 95.8639 38.6705C95.668 38.7824 95.5001 38.8944 95.3602 39.0623C95.2203 39.2301 95.1084 39.426 95.0524 39.6499C94.9965 39.8737 94.9685 40.1255 94.9685 40.3494V42.6439H94.4089L94.3809 42.6719Z" fill="#413934"/>
<path d="M102.468 38.5305C102.328 38.5305 102.188 38.5305 102.076 38.5585C101.964 38.5865 101.824 38.6145 101.712 38.6704C101.6 38.7264 101.516 38.8103 101.432 38.8943C101.348 39.0062 101.32 39.1181 101.32 39.286C101.32 39.4539 101.32 39.5099 101.404 39.5938C101.46 39.6778 101.516 39.7617 101.6 39.8177C101.684 39.8736 101.768 39.9296 101.852 39.9576C101.936 39.9856 102.048 40.0135 102.16 40.0415C102.356 40.0695 102.524 40.1255 102.719 40.1535C102.887 40.1814 103.083 40.2374 103.279 40.2654C103.587 40.3213 103.839 40.4612 104.035 40.6291C104.23 40.797 104.314 41.0768 104.314 41.4126C104.314 41.7484 104.258 41.8883 104.146 42.0562C104.035 42.2241 103.895 42.364 103.727 42.4479C103.559 42.5598 103.363 42.6158 103.167 42.6438C102.943 42.6718 102.747 42.6997 102.524 42.6997C102.3 42.6997 102.132 42.6997 101.936 42.6438C101.74 42.6158 101.544 42.5319 101.376 42.4479C101.208 42.364 101.041 42.252 100.929 42.0842C100.789 41.9442 100.705 41.7484 100.677 41.5245H101.264C101.32 41.6644 101.404 41.7764 101.516 41.8603C101.628 41.9443 101.712 42.0002 101.824 42.0562C101.936 42.1121 102.076 42.1401 102.188 42.1681C102.3 42.1961 102.44 42.1961 102.58 42.1961C102.719 42.1961 102.859 42.1961 102.999 42.1961C103.139 42.1961 103.279 42.1401 103.391 42.0842C103.503 42.0282 103.615 41.9443 103.671 41.8323C103.755 41.7204 103.783 41.5805 103.783 41.4126C103.783 41.2447 103.783 41.1888 103.727 41.1048C103.671 41.0209 103.615 40.9649 103.531 40.9089C103.447 40.853 103.363 40.825 103.279 40.797C103.195 40.769 103.083 40.7411 102.999 40.7131C102.831 40.6851 102.635 40.6291 102.468 40.6011C102.3 40.5732 102.104 40.5172 101.936 40.4892C101.628 40.4053 101.348 40.2654 101.152 40.0975C100.957 39.9016 100.845 39.6218 100.845 39.286C100.845 38.9502 100.901 38.8383 101.013 38.6704C101.124 38.5025 101.264 38.3906 101.404 38.2787C101.544 38.1668 101.768 38.1108 101.964 38.0828C102.16 38.0548 102.384 38.0269 102.58 38.0269C102.775 38.0269 102.943 38.0269 103.111 38.0828C103.307 38.1108 103.447 38.1948 103.615 38.2787C103.783 38.3626 103.895 38.4746 104.007 38.6145C104.118 38.7544 104.174 38.9223 104.23 39.1181H103.699C103.671 39.0062 103.587 38.9223 103.503 38.8383C103.419 38.7544 103.335 38.6984 103.223 38.6424C103.111 38.5865 102.999 38.5585 102.887 38.5305C102.775 38.5305 102.663 38.5025 102.552 38.5025L102.468 38.5305Z" fill="#413934"/>
</svg>
